<svg width="132" height="132" viewBox="0 0 132 132" fill="none" xmlns="http://www.w3.org/2000/svg">
<g clip-path="url(#clip0_1476_316)">
<rect x="63.412" y="72.6727" width="52.8" height="52.8" rx="13.2" transform="rotate(-15 63.412 72.6727)" fill="#6ACBBA"/>
<path fill-rule="evenodd" clip-rule="evenodd" d="M13.7026 30.5007C9.60191 37.6034 12.0177 46.6191 16.8492 64.6507L22.8279 86.9636C27.6595 104.995 30.0752 114.011 37.1779 118.112C42.8237 121.371 49.6783 120.513 61.3091 117.598C64.7095 116.745 66.4096 116.319 67.1081 115.101C67.8065 113.884 67.28 112.077 66.2268 108.463C65.5101 106.003 64.7507 103.169 63.8698 99.8813C60.6767 87.9648 59.0802 82.0065 60.4533 76.8819C61.3529 73.5247 63.1203 70.4634 65.578 68.0058C69.3294 64.2543 75.2877 62.6578 87.2043 59.4647C90.495 58.583 93.3313 57.823 95.8212 57.2137C99.4548 56.3244 101.272 55.8798 101.979 54.6854C102.686 53.491 102.23 51.7891 101.318 48.3854L99.7256 42.444C94.8941 24.4125 92.4783 15.3967 85.3757 11.296C78.2731 7.19526 69.2573 9.61103 51.2258 14.4426L44.8506 16.1508C26.8191 20.9823 17.8033 23.3981 13.7026 30.5007Z" fill="url(#paint0_linear_1476_316)"/>
</g>
<defs>
<linearGradient id="paint0_linear_1476_316" x1="45.6747" y1="13.8417" x2="77.4551" y2="120.326" gradientUnits="userSpaceOnUse">
<stop/>
<stop offset="1" stop-color="#6D8295"/>
</linearGradient>
<clipPath id="clip0_1476_316">
<rect width="132" height="132" fill="white"/>
</clipPath>
</defs>
</svg>
