<svg width="24" height="24" viewBox="0 0 24 24" fill="none" xmlns="http://www.w3.org/2000/svg">
  <style>
        path {
            fill: #000;
        }
        @media (prefers-color-scheme: dark) {
            path {
                fill: #fff;
            }
        }
    </style>
<path d="M17 7C17 8.8771 15.9656 10.5126 14.4358 11.3676C14.6225 12.6202 14.9255 13.7847 15.3916 14.8643H18.1745V17.1758H16.754C16.8047 17.2411 16.8563 17.3059 16.9089 17.3704C17.6522 18.282 18.8238 18.6834 20 18.6834V18.6834V22H4V18.6834V18.6834C5.09801 18.6834 6.17289 18.2555 6.8407 17.3839C6.89351 17.3149 6.94562 17.2456 6.99703 17.1758H5.7181V14.8643H8.35898C8.84887 13.7903 9.20843 12.6113 9.43253 11.2914C7.97531 10.4176 7 8.82272 7 7C7 4.23858 9.23858 2 12 2C14.7614 2 17 4.23858 17 7Z" fill="#2C2C2C"/>
</svg>
