<svg width="272" height="273" viewBox="0 0 272 273" fill="none" xmlns="http://www.w3.org/2000/svg">
<g clip-path="url(#clip0_111_1212)">
<path fill-rule="evenodd" clip-rule="evenodd" d="M29.4338 7.96223H22.6585V9.45805H29.0088C26.2099 18.3898 19.2338 25.4739 10.3691 28.4219V21.4248H8.83296V28.8859C6.38562 29.5517 3.81037 29.9071 1.15211 29.9071H0V242.696H1.53615C4.05718 242.696 6.50257 243.02 8.83296 243.628V250.74H10.3691V244.076C19.1857 246.913 26.1478 254.884 28.9727 263.707H22.6585V265.202H29.4071C30.0156 267.533 30.3394 269.978 30.3394 272.499H240.795C240.795 269.978 241.119 267.533 241.728 265.202H249.244V263.707H242.162C245.069 254.63 254.354 246.512 263.534 243.84V250.74H265.07V243.439C267.168 242.953 269.353 242.696 271.599 242.696H271.983V29.9071C269.603 29.9071 267.288 29.6257 265.07 29.0943V21.4248H263.534V28.682C254.228 25.9119 244.834 18.6831 241.845 9.45805H249.244V7.96223H241.403C240.787 5.64819 240.444 3.2219 240.411 0.719727H30.3394C30.3394 3.21976 30.0251 5.64639 29.4338 7.96223ZM237.518 3.79208C237.668 5.21145 237.909 6.60346 238.234 7.96223H32.5956C32.9074 6.60294 33.1334 5.21089 33.2674 3.79208H237.518ZM238.63 9.45805H32.2143C29.2295 20.0898 20.9332 28.4995 10.3691 31.6435V240.863C20.8854 243.89 29.1706 253.185 32.1837 263.707H238.951C242.037 252.93 252.654 243.489 263.534 240.653V31.875C252.529 28.9338 241.805 20.3849 238.63 9.45805ZM265.07 32.2457V240.293C266.325 240.032 267.606 239.844 268.91 239.735V32.8366C267.607 32.7149 266.325 32.5164 265.07 32.2457ZM238.562 265.202H32.5727C32.895 266.578 33.1281 267.989 33.2656 269.427H237.869C238.007 267.989 238.24 266.578 238.562 265.202ZM8.83296 240.463V32.0594C6.97089 32.5142 5.04545 32.8074 3.07235 32.9232V239.66C5.04481 239.754 6.97033 240.026 8.83296 240.463Z" fill="#4F4A40"/>
<path d="M263.31 6.33716L266.383 9.40969L263.31 12.4822L260.237 9.40969L263.31 6.33716Z" fill="#4F4A40"/>
<path fill-rule="evenodd" clip-rule="evenodd" d="M263.31 0.719737L254.62 9.40966L263.31 18.0996L272 9.40966L263.31 0.719737ZM268.741 9.40966L263.31 3.97846L257.879 9.40966L263.31 14.8409L268.741 9.40966Z" fill="#4F4A40"/>
<path d="M9.07371 6.33713L12.1462 9.40966L9.07371 12.4822L6.00118 9.40966L9.07371 6.33713Z" fill="#4F4A40"/>
<path fill-rule="evenodd" clip-rule="evenodd" d="M9.07371 0.719756L0.383795 9.40967L9.07371 18.0996L17.7636 9.40967L9.07371 0.719756ZM14.5049 9.40967L9.07371 3.97848L3.64251 9.40967L9.07371 14.8409L14.5049 9.40967Z" fill="#4F4A40"/>
<path d="M266.382 263.675L263.31 260.603L260.237 263.675L263.31 266.748L266.382 263.675Z" fill="#4F4A40"/>
<path fill-rule="evenodd" clip-rule="evenodd" d="M263.31 254.985L272 263.675L263.31 272.365L254.62 263.675L263.31 254.985ZM263.31 258.244L268.741 263.675L263.31 269.107L257.879 263.675L263.31 258.244Z" fill="#4F4A40"/>
<path d="M9.90634 260.603L12.9789 263.675L9.90634 266.748L6.83381 263.675L9.90634 260.603Z" fill="#4F4A40"/>
<path fill-rule="evenodd" clip-rule="evenodd" d="M9.90634 254.985L1.21642 263.675L9.90634 272.365L18.5963 263.675L9.90634 254.985ZM15.3375 263.675L9.90634 258.244L4.47514 263.675L9.90634 269.107L15.3375 263.675Z" fill="#4F4A40"/>
</g>
<defs>
<clipPath id="clip0_111_1212">
<rect width="272" height="272" fill="white" transform="translate(0 0.719727)"/>
</clipPath>
</defs>
</svg>
